<mxfile host="app.diagrams.net" modified="2024-04-18T16:31:31.113Z" agent="Mozilla/5.0 (Macintosh; Intel Mac OS X 10_15_7) AppleWebKit/605.1.15 (KHTML, like Gecko) Version/16.1 Safari/605.1.15" etag="uEocCh8VkSxf7dPMRuEG" version="24.2.5" type="device">
  <diagram name="Page-1" id="_08Y3wSrGrd4huHJRg5L">
    <mxGraphModel dx="1934" dy="1882" grid="1" gridSize="10" guides="1" tooltips="1" connect="1" arrows="1" fold="1" page="1" pageScale="1" pageWidth="827" pageHeight="1169" math="0" shadow="0">
      <root>
        <mxCell id="0" />
        <mxCell id="1" parent="0" />
        <mxCell id="2bOrS27qIbPwQ1yJKfbT-14" value="" style="rounded=0;whiteSpace=wrap;html=1;fillColor=#B3B3B3;strokeColor=#6c8ebf;" parent="1" vertex="1">
          <mxGeometry x="10" y="830" width="510" height="180" as="geometry" />
        </mxCell>
        <mxCell id="2bOrS27qIbPwQ1yJKfbT-17" style="edgeStyle=orthogonalEdgeStyle;rounded=0;orthogonalLoop=1;jettySize=auto;html=1;exitX=0.5;exitY=1;exitDx=0;exitDy=0;entryX=0.5;entryY=0;entryDx=0;entryDy=0;strokeWidth=4;" parent="1" source="2bOrS27qIbPwQ1yJKfbT-12" target="2bOrS27qIbPwQ1yJKfbT-14" edge="1">
          <mxGeometry relative="1" as="geometry" />
        </mxCell>
        <mxCell id="2bOrS27qIbPwQ1yJKfbT-12" value="" style="rounded=0;whiteSpace=wrap;html=1;fillColor=#B3B3B3;strokeColor=#6c8ebf;" parent="1" vertex="1">
          <mxGeometry x="10" y="530" width="510" height="270" as="geometry" />
        </mxCell>
        <mxCell id="2bOrS27qIbPwQ1yJKfbT-13" style="edgeStyle=orthogonalEdgeStyle;rounded=0;orthogonalLoop=1;jettySize=auto;html=1;exitX=0.5;exitY=1;exitDx=0;exitDy=0;entryX=0.5;entryY=0;entryDx=0;entryDy=0;fontSize=11;strokeWidth=4;" parent="1" source="COqr7rsEs2Xy4jQhT2ek-5" target="2bOrS27qIbPwQ1yJKfbT-12" edge="1">
          <mxGeometry relative="1" as="geometry" />
        </mxCell>
        <mxCell id="COqr7rsEs2Xy4jQhT2ek-5" value="" style="rounded=0;whiteSpace=wrap;html=1;fillColor=#B3B3B3;strokeColor=#6c8ebf;" parent="1" vertex="1">
          <mxGeometry x="10" y="100" width="510" height="400" as="geometry" />
        </mxCell>
        <mxCell id="2bOrS27qIbPwQ1yJKfbT-16" style="edgeStyle=orthogonalEdgeStyle;rounded=0;orthogonalLoop=1;jettySize=auto;html=1;exitX=0.5;exitY=1;exitDx=0;exitDy=0;entryX=0.5;entryY=0;entryDx=0;entryDy=0;strokeWidth=2;" parent="1" source="2bOrS27qIbPwQ1yJKfbT-4" target="COqr7rsEs2Xy4jQhT2ek-20" edge="1">
          <mxGeometry relative="1" as="geometry" />
        </mxCell>
        <mxCell id="2bOrS27qIbPwQ1yJKfbT-4" value="" style="rounded=1;whiteSpace=wrap;html=1;fillColor=#f5f5f5;strokeColor=#666666;fontColor=#333333;" parent="1" vertex="1">
          <mxGeometry x="20" y="110" width="490" height="280" as="geometry" />
        </mxCell>
        <mxCell id="COqr7rsEs2Xy4jQhT2ek-4" value="" style="sketch=0;pointerEvents=1;shadow=0;dashed=0;html=1;strokeColor=none;fillColor=#505050;labelPosition=center;verticalLabelPosition=bottom;verticalAlign=top;outlineConnect=0;align=center;shape=mxgraph.office.concepts.search;" parent="1" vertex="1">
          <mxGeometry x="36.25" y="120" width="30" height="30" as="geometry" />
        </mxCell>
        <mxCell id="COqr7rsEs2Xy4jQhT2ek-7" value="&lt;b&gt;Search&lt;/b&gt;" style="text;html=1;strokeColor=none;fillColor=none;align=center;verticalAlign=middle;whiteSpace=wrap;rounded=0;" parent="1" vertex="1">
          <mxGeometry x="66.25" y="120" width="60" height="30" as="geometry" />
        </mxCell>
        <mxCell id="COqr7rsEs2Xy4jQhT2ek-9" value="" style="rounded=1;whiteSpace=wrap;html=1;" parent="1" vertex="1">
          <mxGeometry x="30" y="160" width="462" height="80" as="geometry" />
        </mxCell>
        <mxCell id="COqr7rsEs2Xy4jQhT2ek-10" value="Data Providers" style="text;html=1;strokeColor=none;fillColor=none;align=center;verticalAlign=middle;whiteSpace=wrap;rounded=0;" parent="1" vertex="1">
          <mxGeometry x="55.629999999999995" y="161" width="109.25" height="30" as="geometry" />
        </mxCell>
        <mxCell id="COqr7rsEs2Xy4jQhT2ek-11" value="Google Cloud &lt;br&gt;using &lt;i&gt;FeLS&lt;/i&gt;" style="rounded=1;whiteSpace=wrap;html=1;" parent="1" vertex="1">
          <mxGeometry x="51.25" y="205" width="113" height="30" as="geometry" />
        </mxCell>
        <mxCell id="COqr7rsEs2Xy4jQhT2ek-13" value="Copernicus Data Space Ecosystem &lt;br&gt;using&amp;nbsp;&lt;a style=&quot;text-align: start; box-sizing: border-box; text-decoration: none; caret-color: rgb(230, 237, 243); color: var(--fgColor-default, var(--color-fg-default)) !important;&quot; href=&quot;https://github.com/SDFIdk/CDSETool&quot; class=&quot;color-fg-default&quot; data-turbo-frame=&quot;repo-content-turbo-frame&quot; data-pjax=&quot;#repo-content-pjax-container&quot;&gt;&lt;font style=&quot;font-size: 12px;&quot; face=&quot;Helvetica&quot;&gt;&lt;i&gt;CDSETool&lt;/i&gt;&lt;/font&gt;&lt;/a&gt;" style="rounded=1;whiteSpace=wrap;html=1;" parent="1" vertex="1">
          <mxGeometry x="202.25" y="205" width="269.75" height="30" as="geometry" />
        </mxCell>
        <mxCell id="COqr7rsEs2Xy4jQhT2ek-14" value="" style="rounded=1;whiteSpace=wrap;html=1;" parent="1" vertex="1">
          <mxGeometry x="30" y="275" width="462" height="85" as="geometry" />
        </mxCell>
        <mxCell id="COqr7rsEs2Xy4jQhT2ek-15" value="User Inputs" style="text;html=1;strokeColor=none;fillColor=none;align=center;verticalAlign=middle;whiteSpace=wrap;rounded=0;" parent="1" vertex="1">
          <mxGeometry x="70" y="275" width="67" height="30" as="geometry" />
        </mxCell>
        <mxCell id="COqr7rsEs2Xy4jQhT2ek-16" value="Region of Interest" style="rounded=1;whiteSpace=wrap;html=1;" parent="1" vertex="1">
          <mxGeometry x="51.25" y="320" width="113" height="30" as="geometry" />
        </mxCell>
        <mxCell id="COqr7rsEs2Xy4jQhT2ek-17" value="Sensing Period" style="rounded=1;whiteSpace=wrap;html=1;" parent="1" vertex="1">
          <mxGeometry x="201.25" y="320" width="113" height="30" as="geometry" />
        </mxCell>
        <mxCell id="COqr7rsEs2Xy4jQhT2ek-18" value="Credentials" style="rounded=1;whiteSpace=wrap;html=1;" parent="1" vertex="1">
          <mxGeometry x="354.75" y="320" width="113" height="30" as="geometry" />
        </mxCell>
        <mxCell id="2bOrS27qIbPwQ1yJKfbT-11" style="edgeStyle=orthogonalEdgeStyle;rounded=0;orthogonalLoop=1;jettySize=auto;html=1;exitX=0.5;exitY=1;exitDx=0;exitDy=0;entryX=0.5;entryY=0;entryDx=0;entryDy=0;strokeWidth=2;" parent="1" source="COqr7rsEs2Xy4jQhT2ek-20" target="2bOrS27qIbPwQ1yJKfbT-6" edge="1">
          <mxGeometry relative="1" as="geometry" />
        </mxCell>
        <mxCell id="COqr7rsEs2Xy4jQhT2ek-20" value="List of Available Products" style="rounded=1;whiteSpace=wrap;html=1;" parent="1" vertex="1">
          <mxGeometry x="190.5" y="410" width="149" height="20" as="geometry" />
        </mxCell>
        <mxCell id="COqr7rsEs2Xy4jQhT2ek-24" value="" style="shape=image;html=1;verticalAlign=top;verticalLabelPosition=bottom;labelBackgroundColor=#ffffff;imageAspect=0;aspect=fixed;image=https://cdn3.iconfinder.com/data/icons/user-interface-169/32/plus-128.png" parent="1" vertex="1">
          <mxGeometry x="172.25" y="325.5" width="19" height="19" as="geometry" />
        </mxCell>
        <mxCell id="COqr7rsEs2Xy4jQhT2ek-25" value="" style="shape=image;html=1;verticalAlign=top;verticalLabelPosition=bottom;labelBackgroundColor=#ffffff;imageAspect=0;aspect=fixed;image=https://cdn3.iconfinder.com/data/icons/user-interface-169/32/plus-128.png" parent="1" vertex="1">
          <mxGeometry x="322" y="325.5" width="19" height="19" as="geometry" />
        </mxCell>
        <mxCell id="COqr7rsEs2Xy4jQhT2ek-27" value="or" style="text;html=1;align=center;verticalAlign=middle;resizable=0;points=[];autosize=1;strokeColor=none;fillColor=none;" parent="1" vertex="1">
          <mxGeometry x="166.75" y="205" width="30" height="30" as="geometry" />
        </mxCell>
        <mxCell id="COqr7rsEs2Xy4jQhT2ek-28" value="" style="shape=image;html=1;verticalAlign=top;verticalLabelPosition=bottom;labelBackgroundColor=#ffffff;imageAspect=0;aspect=fixed;image=https://cdn3.iconfinder.com/data/icons/user-interface-169/32/plus-128.png" parent="1" vertex="1">
          <mxGeometry x="251.5" y="250" width="19" height="19" as="geometry" />
        </mxCell>
        <mxCell id="COqr7rsEs2Xy4jQhT2ek-31" value="" style="sketch=0;outlineConnect=0;fontColor=#232F3E;gradientColor=none;fillColor=#232F3D;strokeColor=none;dashed=0;verticalLabelPosition=bottom;verticalAlign=top;align=center;html=1;fontSize=12;fontStyle=0;aspect=fixed;pointerEvents=1;shape=mxgraph.aws4.user;" parent="1" vertex="1">
          <mxGeometry x="40.25" y="280" width="20" height="20" as="geometry" />
        </mxCell>
        <mxCell id="COqr7rsEs2Xy4jQhT2ek-35" value="" style="rounded=1;whiteSpace=wrap;html=1;fillColor=#f5f5f5;fontColor=#333333;strokeColor=#666666;" parent="1" vertex="1">
          <mxGeometry x="18" y="600" width="494" height="190" as="geometry" />
        </mxCell>
        <mxCell id="COqr7rsEs2Xy4jQhT2ek-36" value="" style="shape=image;html=1;verticalAlign=top;verticalLabelPosition=bottom;labelBackgroundColor=#ffffff;imageAspect=0;aspect=fixed;image=https://cdn2.iconfinder.com/data/icons/boxicons-solid-vol-2/24/bxs-mask-128.png" parent="1" vertex="1">
          <mxGeometry x="36.25" y="610" width="30" height="30" as="geometry" />
        </mxCell>
        <mxCell id="COqr7rsEs2Xy4jQhT2ek-37" value="&lt;b&gt;Masking&lt;/b&gt;" style="text;html=1;strokeColor=none;fillColor=none;align=center;verticalAlign=middle;whiteSpace=wrap;rounded=0;" parent="1" vertex="1">
          <mxGeometry x="65.25" y="610" width="67" height="30" as="geometry" />
        </mxCell>
        <mxCell id="2bOrS27qIbPwQ1yJKfbT-18" style="edgeStyle=orthogonalEdgeStyle;rounded=0;orthogonalLoop=1;jettySize=auto;html=1;exitX=0.5;exitY=1;exitDx=0;exitDy=0;entryX=0.5;entryY=0;entryDx=0;entryDy=0;strokeWidth=2;" parent="1" source="COqr7rsEs2Xy4jQhT2ek-38" target="COqr7rsEs2Xy4jQhT2ek-39" edge="1">
          <mxGeometry relative="1" as="geometry" />
        </mxCell>
        <mxCell id="COqr7rsEs2Xy4jQhT2ek-38" value="Remove Land using ESA WorldCover 2021 with &lt;i&gt;TerraScope&lt;/i&gt;" style="rounded=1;whiteSpace=wrap;html=1;" parent="1" vertex="1">
          <mxGeometry x="88.5" y="640" width="353" height="30" as="geometry" />
        </mxCell>
        <mxCell id="2bOrS27qIbPwQ1yJKfbT-19" style="edgeStyle=orthogonalEdgeStyle;rounded=0;orthogonalLoop=1;jettySize=auto;html=1;exitX=0.5;exitY=1;exitDx=0;exitDy=0;entryX=0.5;entryY=0;entryDx=0;entryDy=0;strokeWidth=2;" parent="1" source="COqr7rsEs2Xy4jQhT2ek-39" target="COqr7rsEs2Xy4jQhT2ek-40" edge="1">
          <mxGeometry relative="1" as="geometry" />
        </mxCell>
        <mxCell id="COqr7rsEs2Xy4jQhT2ek-39" value="Remove Majority of Water Pixels using NDWI or Band 8" style="rounded=1;whiteSpace=wrap;html=1;" parent="1" vertex="1">
          <mxGeometry x="88.5" y="696" width="353" height="30" as="geometry" />
        </mxCell>
        <mxCell id="COqr7rsEs2Xy4jQhT2ek-40" value="Remove Clouds using &lt;i&gt;s2cloudless&lt;/i&gt;" style="rounded=1;whiteSpace=wrap;html=1;" parent="1" vertex="1">
          <mxGeometry x="88.5" y="750" width="353" height="30" as="geometry" />
        </mxCell>
        <mxCell id="2bOrS27qIbPwQ1yJKfbT-15" style="edgeStyle=orthogonalEdgeStyle;rounded=0;orthogonalLoop=1;jettySize=auto;html=1;exitX=0.5;exitY=1;exitDx=0;exitDy=0;entryX=0.5;entryY=0;entryDx=0;entryDy=0;strokeWidth=2;" parent="1" source="COqr7rsEs2Xy4jQhT2ek-41" target="COqr7rsEs2Xy4jQhT2ek-35" edge="1">
          <mxGeometry relative="1" as="geometry" />
        </mxCell>
        <mxCell id="COqr7rsEs2Xy4jQhT2ek-41" value="&lt;b&gt;Atmospheric Correction&lt;/b&gt; using &lt;i&gt;ACOLITE&lt;/i&gt;" style="rounded=1;whiteSpace=wrap;html=1;fillColor=#f5f5f5;fontColor=#333333;strokeColor=#666666;" parent="1" vertex="1">
          <mxGeometry x="18" y="540" width="494" height="40" as="geometry" />
        </mxCell>
        <mxCell id="COqr7rsEs2Xy4jQhT2ek-42" value="" style="shape=image;verticalLabelPosition=bottom;labelBackgroundColor=default;verticalAlign=top;aspect=fixed;imageAspect=0;image=data:image/png,iVBORw0KGgoAAAANSUhEUgAAAgAAAAIACAYAAAD0eNT6AAAACXBIWXMAAAsTAAALEwEAmpwYAAAgAElEQVR4nO2df7RlR1Xn65373n3vdbohCZPOpI0xBJI0HRJJ6E5ME8SQTvihoOLocjkzupYj6CgQcDkwwKwxJsFBQeSnsvjhiGuNiCCkO2tMJGFUfv8ISAhRnBHwD5SEkABKSDok/abqvXsf9557flTVt+rUrnO+tdZesPJuf2p/d+3a+/y49xx16NAPjbWtaFM+w/y7yb8fzxh55JFHHnnkkSeZ1ysx5JFHHnnkkUeePSTZ5OSRRx555JFHXlJe0snJI4888sgjj7zueUknJ4888sgjjzzyuuclnZw88sgjjzzyyEvDSzo5eeSRRx555JGXhpd0cvLII4888sgjLw0v6eQOPHOkcqm2l2h7r7bPafsnbd82trS09E9FsXR7URSHR6PRy1ZWVg7t2LFud3QTxj/yyCOPPPLIy4qXdHIL3n5tb9T2NW0bVaab/4JN/naXtjdoe3xE/8gjjzzyyCMvS55UMfu0/am2Y6qm8avm5l+2m7Q9LqB/ofWSRx555JFHXqc8aWJWtb1a20OqofErt+Y/NcN8lbaFo55cF4888sgjjzzygvESTn62ts+olsav/Jr/rH1K25kC9JJHHnnkkUeeDF7CyS9QW/fsYzf/qd2p7XG9WjzyyCOPPPLI8+ElnPxibd9Q3TX/qd0zHo8P9mLxyCOPPPLII8+Hl3Dy71VbZ+NdN/8p446dO3c+MuvFI4888sgjjzwfXsLJ17R9QqVr/ptWFMXHTjvte3dmuXjkkUceeeSR58tLOPm1KnHzn+Fd1YFe8sgjjzzyyJPDSzT5GdruUzKavzHzRMFHRtRLHnnkkUceebJ4iSZ/j5LT/Kf2ZxH1kkceeeSRR54sXoLJzU/+Qj3hL1Tzn9qBCHrJI4888sgjTx4vweRHlMzmb+y6CHrJI4888sgjTx6v48kbz/4TN//GqwAiF4888sgjjzzyQF5Xk9ee/Qtp/pVXAaQvHnnkkUceeeRFH8Dk5rW8lWf/Hs36z40r2k7QduLk/98A8GbN+HhBAL2h40ceeeSRRx552TV/MyrP/j2a9dXalir45r9dG+hKwuEAehcGeeSRRx555EnhdTV55dm/R7O+WVU3/03/Dh68cFwUxfsD3EY4pv/tBdIXjzzyyCOPPPJ8eV1NvnD2H+sLemtrqxdq1jH0OwT6QOKw9MUjjzzyyCOPPF9eF5MvfPPfs/lX/kSvyj/dvBt/athmU59WV1cPSl488sgjjzzyyPPldTH5XDMG7tEvnP3X+aeZ56uWhw3VWelFQYclLx555JFHHnnk+fJiTz539t/xT/MOW7IbD060tT4dsGrkmAzkkUceeeQNhxd78u2zf/Db+XNN2NI/p6sADf41Ph2wauSaDOSRRx555A2YF3Dy7bN/sPnPNWBH/6yuAlj4Z30VoFfJQB555JFH3jB4gSffPPsP8Lv87ebr4V/rVQBL/6yuAvQqGcgjjzzyyBsGL/Dkm2f/AZr/duMF/Ku9CuDoX+NVgF4lA3nkkUceecPghZ5cjyOBnsh3IIB/lVcBPPyrvQrQq2QgjzzyyCNvGLzQk5sn6E0fxAM2/+sC+jd3FaCLnyJmmQzkkUceeeQNhxd68qIorg/Q/DebbcDgbF8FSPiFxNZBHnnkkUceeZ3xQk6+ujq+sHz2r/ya/3Whg6PHYUG3JRYGeeSRRx555HXKCzl5+exf+TX/zYfvhA6OPjg5EOjg5LCYxSOPPPLII488X16oyVdXVy+abbDKs/mrrbP/KMEx7wgI4N/GeDy+WMTikUceeeSRR54vL9Tks2f/Smhznb4pEPFv8o6AIyIWjzzyyCOPPPJ8eSEmnz37V0Bz7eIVvMrjHQFqpvmX3hTYr2QgjzzyyCNvcDxo8unZvwLPrGdevxszOF5vCix/eXByFSCGf+SRRx555JHXCQ+afHr2r/DL6oc7DI7TVYCGXw84vylQejKQRx555JE3DB48uTn7V2DzL539dxEc66sALT8dPBzJP/LII4888siLyoMmN7/7Vx6X01Wpuc6c/XcZnNarAJbPDbC6CpBDMpBHHnnkkTccHjS5mrzxz8cEfKGu8SqAw0ODWq8C5JIM5JFHHnnkDYfnPbl55r/yPPsvfZnucMLgVF4F8HhiYO1VgJySgTzyyCOPvOHwkMm9zv7LjXXyu/8gYjyCs3AVwPNxwZVXAXJLBvLII4888obD853c6+y/4qd0hwUEZ/sqAPiugLmrADkmA3nkkUceecPh+U7ufPZf1VzNM/9DivEMzuZVgAAvCtq+CpBrMpBHHnnkkTdgnsWHnc/+a5rrdcpjxAjO7DsCBL3COJpe8sgjjzzyyPP5sNPZfw4P0Zm+IyDAuwwOJ1s88sgjjzzyyPPhWX7Y6ey/ofk7n/3HDs70KoCttjq9HT3OmDzyyCOPPPJwnsOHrc/+W+6pO539dxGc1dWx8SnEQ42OdLp45JFHHnnkkefDc/iw9dl/S/N3OvvvODhebwoU9tNG8sgjjzzyyGvnOXzYqjm2NH9zAHFBNDE4L9QXHJ3eEZBQL3nkkUceeUPlWX74TG0PKaz5O539JwyO9VWABr3mIOLsSP6RRx555JFHHs6z/PDrFN78rc/+EwfH6iqAhd7XRPKPPPLII4888nCexYcLbXcorBlan/0LCU7jVQBLvXeqrdjloJc88sgjj7yh8Sw+fLHCm6Gx1m/+CwpO7ZsCHZ8YeFEmeskjjzzyyBsaz+LDL1V488/xlbkLVwE8Hhf8koz0kkceeeSRN0Be03inws+EG8/+hQZn7iqA57sC/jgjveSRRx555A2M1zZuU1jzbzz7Fx6czasAwIuCbs1ML3nkkUceeQPh2Yy5LwB6NMOndiUmQnCeBjR/Y1/JSS955JFHHnnD4dmM+xV2GfzhXYkJzTvhhON3A83f2Ldz0kseeeSRR95weDafPaqwy+DHdSUmNO/kk3efCDR/Y0dz0kseeeSRR95weDafvxu8DH5JV2JC8/R4MtD8jd2Vk17yyCOPPPKGw2v9sG5+fwdeBn9XV2JC84qiOAw0f2O356SXPPLII4+84fBaP2xebwteBjf2q7kFZzQavRhs/ubVwNflopc88sgjj7xh8Vo/rBvhb4LNf9oM3zMejy/ds+eU46UG55RTTj7BXPYPcOa/GS8du2tzSgbyyCOPPPIGzCt/eDxeeUqIZgjeRsiSp4N3WdbJsDXQ+MX2bwi8k7X9tNp6wdSN2v5e2z1q60umRyf//+8nf/vd5eXln3n4wx/2PRnrFcND60FueskbMK/qw6eeumeX/tM3lLDmmgHv66efftqubJPhuwONX2z/+so7UdtztX1c+eXfsaIoPj4ajZ6v7cQM9IrkofUgN73kDZTX8uG3KlnNVTxPF9+3ZJsM8wONX2z/esXTebNH//nV2r6lwuXzv2r7HW2nSNMrnafAepCbXvIGyLP4sHmWv5jmmgNvPB5flGUyLA40frH96wVv794z1/WfrtT2LypePt+r7Spt49R6M+JB9SBDveQNiefw4fcpIc1VOq8olm7IMhmqBxq/2P5lz1tfX3uM/tOnVXf5fIu2R6XSmxkPWo8M9ZI3JJ7Dhy/Q9qDqWbOOwHtQ2+NsFqtiLSQmFxq/2P5lzVteXn6W/tM3Vff5bL7X84yu9WbIg9YjQ73kDYnnOPnrVb+adQzea5oCWDdEJEP1QOMX279seaPR6Of1n76j0uWzOaB/dld6M+VB65GhXvKGxHOcfE3bZ1R/mnVonnl18o62IJaHmGSoHmj8YvuXJU83/1/Ufzqm0uez8eHnc4tfhzx0PWL7Rx55/jyPyc39yrtV/s06NO9r2s6yDeJ0iEqG6oHGL6p/OfIml/1bb6fVWYR8/s7KysqP5RK/jnnoesT2jzzy/Hmekx9UW98ozrVZh+aZn2xd7BpEcclQwQsQv6z0xuatr6/tVWnu+bfx/mV9ff0c6fFLwEPXI7Z/5JHnz/OdXCf6hdruyrBZh+aZp7DNvfHQZohMhgpegPhlpTcm79GPPsPcHury2/6uvFt27jxuOZRe6ethyUPXI7Z/5JEH87wm12cz5xbF0ucyatahebeqHl72n+UFiF9WemPy9J9epGTns7EXhtIrfT0seeh6xPaPPPK6b/7Tic3LfYqieIOSdU8zNs98c9t8238djZ+0ZCjz0PjlpjcWb/KEP+en+6nu94d5ENG/lRa/hDx0PWL7Rx55aZp/aXLznADzMhLJxQ3mmYf8LPXrd/6NPDR+uemNyDOP9xWXzzW83xYYv1Q8dD1i+0ceed68GJPv1/YWZfECoYya/9f1Gdxbe/R4X2ueAuOXm95IPPMynpDP9o+9P8y7A04QFL+UPHQ9YvtHHnnevJiTr2q7VNvV2t6r7Xa19fPBB5Tc5v/AxMfbdcO/bjQaXTserxzqyVv9fHnQemSoNwbPvNUvl+Y/tf8sKH4peeh6xPaPPPK8eUknt+ShxS22f33npToYk8JD42fGJwL69zltL9B2jrbjJnbO5L99LmD8PgronR3S1zc2D41f4yCPPISXdHJLHro5Y/vXd17OxTcED43fycrhiX8N/h1VW1cSRg0umb89b/JZNH7G55M89JaH9PWNzUPjVzvIIw/l5SAG3Zyx/es7L+fiG4KHxu+nA/hnGvqhOl+q3DP/JkD8fspDb3lIX9/YPDR+lYM88kLwchCDbs7Y/vWdl3PxDcFD4/eaAP49twpcN4wfo9HoBQHi92oPveUhfX1j81LvX/LIs+cJFINuztj+9Z2Xc/ENwUPjdwPon7mv33TZv9K/8847Z70olv4WjN//FrB/c8uXOROwf8kjL9vmbwa6OWP713detsU3EA+N3z+A/r2gCd7k32g0+jUwfv9XwP7NLV/mTMD+JY+8bJu/GejmjO1f33nZFt9APDR+XwP929c2QZ1/q6urjwPjd5eA/ZtbvszxBOxf8sjLtvmbgW7O2P71nZdt8Q3EQ+O3/Y18T/92tk1Q59/y8vIuMH73C9i/ueXLHE/A/iWPvGybvxno5ozq3wB42RbfEDwB8WscFv5B8ROwf7PKl9DxE1gPyOsTT7qYAJszqn8D4GVbfEPwBMSvdliuLxQ/Afs3q3wJHT+B9YC8PvGkiwmwOaP6NwBetsU3BE9A/CqHw/pC8ROwf7PKl9DxE1gPyOsTT7qYAJtTTrDz5GVbfEPwBMRvYTiuLxo/5xF4/2aVL6HjJ7AekNcnnnQx6OYUFewMeSrv4gvzBMRvbnisLxo/pxF6/waIX2oeFD9p9YC8nvGki0E3p6hgZ8jLvPjCPAHxm+N5rC8aPye9ofdvbvkSOn7S6gF5PeNJF6PAzSkq2BnyMi++ME9A/OZ4HuuLxs9Jb+j9m1u+hI6ftHpAXj95SSdv4UGbU2Kwc+JlXnxD8FLHD11fNH5OekPv3wzzJXT8nAd55EUbCcRAm1NasHPjocUyN709jB/aDJ30Sl8Pxo888jxHIjHQkbmkYOfIQ8+UctPbw/ihZ8JOeqWvB+NHHnnf5SWd3JLn3fxD3MOVvHhd8BTQvPgdDBHxQ5pXbQPLdT0YP/LI+y4v6eSWPO/mr1qOwAP513eed/PidzA2eanjhzSvyv2T+Xq4DsaPvN7ykk5uyUOav/MBgAC90njezYvfwdgcSeNX5nl8J8FVr9OQzlOMH3k95iWd3JKHNH+nAwAheqXxvJsXv4OxOZLGL8C33131Ovknncf4kddnXg5ikOZvfQAgSK80nnfz4ncwNkfS+IHNa6PM68F6OPEYP/L6zMtBDNL8rQ4AhOmVxvNuXsrxCoynf9J5SeMHNq8ND71O/knnMX7kDYonUAzS/FsLqEC90nhI83JuYAL0huYljR/YvPgcB8aPvKHwhIpBmn9jARWqVxoPaV5ODUyI3tC8pPFDmpdSfI4D40feIHiCxSDNv7aACtYrjYc0L+sGJkhvaF7S+DXN32aT7yCkjl9SnmL8yOs7T7gYpPlXFlDheqXxkOZl1cCE6Q3NSx0/7+ZVamB9WQ9XHuNHXn950sUorPkvFFDpegXykObV2sAE6g3NSx0/7+Y108D6tB6uPMaPvP7ypIsBm/9GmSddr0Ae0rwaG5hQvaF5qePn3bwmDSx1/FLzGD/y+suTLgZs/htlnnS9AnlI86ptYIL1hualjp9385o0MFe9rv5J5zF+5PWXJ10M2Pw3Yvs3AB7SvCobmHC9fYufd/Oqm79tCF8Pxo888mb+sWgxYPPn73DJI4888sgjrwYgWgzS/JXi73DJI4888sgjrxaSbHILngKaP3+HSx555JFHHnkBR8divJs/f4dLHnnkkUceeYFGAjHezZ+/wyWPPPLII4+8ACORGO/mz9/hkkceeeSRR141L+nkljzv5s/f4ZJHHnnkkUdeNS/p5JY8/g6XPPLII4888gLzkk5uyUOav/MBgAC95JFHHnnkkRedl3RySx7S/J0OAIToJY888sgjj7zovBzEIM3f+gBAkF7yyCOPPPLIi87LQQzS/K0OAITpJY888sgjj7zueQLFIM2/9QBAoF7yyCOPPPLIG3zzNwNp/o0HAEL1kkceeeSRR97gm78ZSPOvPQAQrJc88sgjjzzyBt/8zUCaf+UBgHC95JFHHnnkkRefJ12Mwpr/wgGAdL1CeCNtj9L2NG2/qu1N2m7U9lFtn9Xx/4K2e7Qdndg9+r9/wfxN20cmnzX/5oUTxhkTplS95JG3zXvsY/et6ZyuzX+1lesm549ObC7/i2LpL4qiePNoNPq1lZWVZ6yvr5/18Ic/rDL/Jeglb8A86WLA5r9R5knXm4i3S9sPa3uVtlu03a/wX1+UzTA/OZnj6dp29ih+5GXM2737pEfoRv2jo1Hxap3Pn1IN+d9mDftjIf9T6SWPvNl/JFoM2Pw3yjzpejvknaPtGrV1xv4dhRU3H/uO/vcf0WdJL19fX/v+DONHXsY8nXvn6LP0l2v7qP7/3wmQz677w+y5D2u7Wtu+2HrJI6/uH4oWE6DZyAl2Yp5utifqPz9H24dU3OLmw7td//cXazs5lF7p60Fe57zt/O8gn10Z2/kvOH7k9Y0nXQy6OUUFOxFvZWXlkP7TEW0PqDTFzYVnfDys7UlS4kde9jzz4e38F9j85/K/KIoj4/H4MkHxI6+vPOli0M0pKtgd8/T4oaJY+j9KTnFz5ZkrFc/QtpQifuRlz7tE2/uVnHx24ukDgQ8vLy//2Omnn1aZ/x3Ej7y+86SLUeBmEhXsjngrK8s/qRv/pyUXN0ee+WLij3YVP/Ky5/24NvNlPqn57MpbyP/I8SNvYLykk7fwoM0kMdixeDt2rD9GnzX8RWbFzcX+Utu+XNaDvM55j1ZbP9fLJZ9deZv5HzF+5A2Ql3RyCx60maQFOwZvz55THjYaja7Reu/PuLjZmrlH+vqTT959otT1IK9z3rq2q1TNz/eE57Mrz3yP4bWq5meEQtaDvEx4SSe35EGbSVKwY/BWVpafrnV+qSfFzYX3xZWVladJWw/yOuddoe1LKv98duV9UdvlAeJXO8jrPy/p5JY8aDNJCnZI3s6dxy3rM+GrtcaHBBSjVLxjautsqPq91g1D+vqS18pbVltn/Q+p/uSzK2M7/wWsB3kZ8pJObslDN1Ns/zrnFcXSqVrfB4UVo5S8v9b2Pbbxk76+5LXyTtX2ASUn/1Lz/lqfEJzeo/UlryNe0skteehmiu1fpzw9nqr13SW4GKXifVVtXQ5uHNLXl7xW3lO13aXk5V9q3ldXVlae3oP1Ja9DXtLJLXnoZortX2c8PX5uaeaxpYKLUSreg9qeXRc86etLXivv51TLY6t7ls+uvAdHo9EvZby+5HXMy0EMupli+9cJT48rtb5jGRWjVDxzX/Sq2OtBXue8K9XW2krPv9S8yvyPsB7k9YCXgxh0M8X2LzbPPAXslZkWo5S812krIqwHed3yNvNf5Zd/qXnb+R94PcjrM0+gGHQzxfYvJs9s4D9KXIxu0vYGbc9VWz87OlfbGdpO0DZeW1sbn3DC8bt37Nhxtv7/F5if5o1Goysn/+amDvxrsrefdNIjCsHrS14zbzP/VcLmWhTFzdp+T9Xk/8ROmPy3cyefMZ/dzv+E+/ftquUgoGf5Qh7CEyoG3eyx/YvG0+PVAs5EUL2pmv+m6eL9+1LXl7xW3qtVwuZvDNUrYP++scm/nuULeb48wWLQzR7bvyg8PV4moHiEiF+y5j9ljEajl0lbX/JaeS9TiZv/5AAA0itg/xr7r3X+9ShfyPPlCReDJn9s/2I0/59dkvOFP1Rv0uY/sWP6IOA5UtaXvFbezyo5X/iD9ArYvxuTWP6nKv96ki/k+fKki1F48kf1L4Je8zv/B4U0/xDxS938pzzz87ErHNbBVy95GM/8zt/8nDN1vngdAJT1Cti/U9vMfwHrS54knnQxAZI/qn8heZMn/El7yA+qV0Lzn5p5WBCfGCiXZ57wJ+0hP5BeAft3Lv/5xEDyyv9ItJgAyR/Vv1A882z/JZmP90X1Sirmxsxjg5fbnJaeLz3kmTWR+HhfSG8H/jnxiqL4wL59Z+/oQb6QF4InXUyA5JcT7Aae3pi/JbD5h4ifpGI+tWva1kN6vvSQ9z+UvOZvdQDQojf1/l3gjUaj3+xBvpAXgiddDJr8ooJdw5u80jf4W/30QcUfCYgfWtz+0FavQ/zMG+QO1a2H9HzpIe8KFeetfn8YgIfqhZr1dA/7cBr01uZ/AL3k5cSTLgZNflHBruDt2XPKw7TGLwZu/uZb79cIiR9azM0wDxaqbBBAc/hHbTvK6yE9X3rIW1db77YP2fxnH4cbIv8QvVCzPrR1G6E2/115M3r/UZXyv20IyRfyQvKki1FgMxQV7AreaFS8InDzv295eflnBcUPLebT8RPa7g3Am7XfKK+H9HzpIe/lKmzzv0/bz8zwQ+Wfr16oWc/wFvLfh1f6zHb+tw1B+UJeBF7SyVt4SDPckBjsKW99fe1c7ePRgM3/W+Px+IeExQ9t1rPjiWpSBAM0f2P3aztT+ubsMW+vtqMqXPP/lrZLSnOEzD8fvWiznh3b+Q/wFvK/ymlAb+sgTxYv6eQWPO/mNdPAxAR7llcUxfsDNv+jKysrz5AWvzLPQ+9CCPW/vz9A85/a+yRvzp7zblbhmr85kHhaxRxB889DL9qsF1xQW40bbf7b+V/nuKfexkGeLF7SyS153s1reg9NSrBneSsryz8ZsPl/R/P+ncT4BThTX4if1vpTRnOo+GnesyRuzp7zflyFa/7mITc/VuVfjPxz1Is0/6oDADOeNdEcKn7PrJpEWL6QF4GXdHJLnnfzWlrCn+UdQ+/BgxetFsXSpwM1/43l5eVnS41fgDP1hfgZW14e/WKo+Om1uEXi5uwxz7zi91MqTPMy9vN1/sXKPwe9SPOvOwAw4xcCxu+TdfETki/kReIlndyS5928VPMGCuWfM0+fwj4zXPMq3iY5fgEu09euh/7TH6Dxm5r5Kaa0zdlj3tNVuOb1lib/YuafpV6k+bftv+38D3Cl44qq+AnJF/Ii8ZJObslDmpdzA+tCr/bvQza62vTqM9fP7dlzyvGS44depm9ZjzVtf+Mbv5LeD7tqrdIrebML4n1QhWn+t6mWn3JGzj+bgTT/tv23mf8Bmv92/gvNF/Ii8ZJObslDmpdTA+tCrz77v7xNk6Xef11fXztPevzQKx0W62G+xfxNj/hV6X0iqlfyZhfCu1SFaf7/qu0xbf51kH9tA2n+jfvP+KFrwGM045sBrnRs5r/AfCEvIi8HMUjzsm5gXenVfzrSpMlW72g0en4O8fPVOvXPcj2e5xq/Gr3XoXolb3YhvO38B89cf8XGPwcekn9NA2n+tftvVq+uBS8I0PzN7cTDAvOFvLj9SLwYpHlZNbCu9OoNtlv/+YE6TU02q9Nc+t+798z1TOLnXXxLBbhpPUbaPmMbvwa9Zm1OAvU6jwHxtvMfbP7m0v/2C50E5F/TQJp/5f4r6z3vvHPWNe9WX60z/j1w/PEP3yMoX8jrmidQDNK8WhtYx3pf0OCndfNaWVm5LKP4QXod1sM8AOZYAL3PBfU6jYHxNvM/wD3rJzn411X+1Q1U79yo07u0VJ//LnpHo9GVgvKFvIE3fzOQYt7YwBLoXfjpU5uVtRZF8Y7M4gfpdVyPdwTQ+wlQr/UYGk+PTwVo/v/L0b8u829umH8XQO8cr0XvQv676tX2SSn5Qh6bvxlIMa9tYAn07rPwtW1zmjcGnu3oWur4IXpdn0NgvhC4/dIUoPjuBfRajaHxdOz3BWiGZm3PdvSvy/zbHlP/QL0bZV6L3rn899GravLfVq/U/CMvz+ZvBlrMY/tny7vG0t8mvdZfUpsZqeOHFiPXcQTUa+wqQG/rGCKvKIqXB2iG13n413X+zfkH6t3w0Gv1JeOW/XGVr16p+Udens3fDLSYR/XPgfdRW58b9Dr9TG0yUscPLUau49IAZ5ofBPQ2jqHy9AHAxwI0wydKz7+yf6Ben+cQXNrGtNgfH6xGt+uVmn/k1fCkiwlQzKP6Z8nbpSy//d+g9xYf/wTEDy1GTnonzeaTYLMxa7Uz+ebsCW/37pMeodfhAbAZ3pJL/s36hzR/pbyfQ/AJQO92/vvolZh/5DXwpIsJcNkwqn+WvIVHn1ZZy+Z8jo9/AuKHFF/rAjzr32g0eh565qXtqck3Z09400dfg+vxnFzyb9Y/QO+mP57r8cuA3u3899ErMf/Ia/6HosUkuIcWQ++r2vxs2Zzmiz2n+PgnIH5I8bUqwGX/du3a+X2a5/WTqKkVRfHK5JuzJ7zRqHg12Pwf2rlz52m55F/JP+/mXzoAcFmPPar0k0CPK4G/5anXeZCXkCddTIJ7aDH0Nv78z2JzftTXPwHxQ4pvawGu80//6eO+mo0/M28IFL0/cuDpeH5aAQdj+t9/LLf8m/HPu/nPHEmANowAACAASURBVAD4rMd2/nveBlx4Q6ClXqdBXmKedDGJ7qGF1GueUndfnX+Wm/PFvv4JiB9SfBsLcMt6vNRH74xf95knrEnfH9J5j33sPvPCmtr8bzOzFqPR6KUZ5l/l/DZ6SwcAvuvxUk+9UzNrNvLQaz3IE8CTLkYBzQu4hxZS76Oa/LPcnI/19a9ubhsLFD+k+NYWYIv1OM9H76zt2LF+pvT9IZ2n41ib/202XYe1tbXzM8y/hflt9ZYOAFz1bg79b88Dmv/UHumh12qQJ4uXdPIWHlQ8BAS78guADpvzW9oKwL/U8UOKb2UBtlwPc/Zyr6vekn9P8REsfbN3zLP6AmzZZtbhW/v3n7+WYf7Nze+gt+yf8zB+mCsvmnEv0Py38z/z/CMv5EggBike8LO8A+h9YZN/Fpuz8f6/9Ph56G0swI7rUftzqDq9Jf+e7ypW+mZPwFvI/zabXQfz/ICM80+56q3wz2nM+jf7c1gHvbP2/B7kH3mhRiIx3sUDvIcWSu+bmvyz2JxvAv1LGr8AlyFd9c6Ot7jqLfn3Rle9kjd7It5c/rdZeS10E3tzxvmnXPVW+Oekd9Y/Hbu3Ac1/M/97kH/kNfCSTm7J8y4eyD20gHpvbPLPQtcvg/4ljR9YfDfKPMf1eK6r3tJn/txVr+TNnoi3nf9tVrMelflv61/i/FMeer0OAKr8M2/289C7bUWxdEMP8o+8Bl7SyS15SPFwOoL29K9tfKTFvza7HPQvafzA4rvhoXd2XO6hd9Y+5KpX8mZPxNvM/zZrWI+F/HfxL3H+KQ+9zgcAdf6phvxvs8nVlw/3IP/Ia+AlndyShxQP5wYWWq8et4GXIQ+A/iWNH1h80ecQnOuhd9ZuddUrebMn4t2msPw7UMO18i9x/ikPvU4HAC3+VeZ/m3339svSZ3uQf+Q18JJObslDiodTA4uhV/vzJfAy5Fmgf0njB96DRJ9DcLKH3ln7oqteyZs9Ee9LCsu/s2q4Vv4lzj/lodd6/1msx0L+t1nJty/2IP/Ia+DlIAYpHtYNLJZe7dPd4GXI3aB/SePnoXfOP3A9dnnonbW7XPVK3uyJeHcrLP92I/7VzW1jAfJPeei12n+W6zGX/zZ6S3ZXD/KPvAZeDmKQ4mHVwGLq1X4dBS9DrmYeP+/iWyrAPuux7KF31u730Os8es47qrD8WwX9S5l/2/N75l/l/nNYj+38t9Vb8q8y/9uGsPwjz4UnUAxSPFobWGy9A78HWTl/m836ha6Hh95G/QL3h3Qe8y9t/vk2f6v4B/CPPCk8oWKQ4tGYwF3oHfg9yIX526zsG7oeYPHdKPME7g/pPOZf2vxDmr/TAYDQ/CMv4+ZvBlI8ahO4K70W/jVuzh7Ez7v4TvS76p3zDyy+G2WewP0hncf8S5t/SPO3PgAQnH/kZdz8zUCKR2UCd6zXu/mXDgByjZ938a2bv23M+gcW3w0PvU7+DYDH/Eubf0jzt9IvPP/Iy7j5m5H6HlrjsOB5N/+ZA4Cc44cUX+cCXPYPLL4hvoPR6F/feYr5lzr/kObfql96/pHXwpMuRsA9NFSvd/OfHADkHj+k+DoV4Cr/kOKrVJDvYDT613ce8y95/iHNv1F/DvlHXgtPuhgB99BQvd7Nf3IAAPknIH5I8bUuwHX+eeid80/6/pDOY/4lzz+k+dfqzyX/yGvhSRcj4B4aqte7+auGDWjrn4D4IcXXSn+Lf97Ft1SARe4P6TzmX/L8Q5p/pf6c8o+89n8sWoyAe2ioXqT5Ox8ACIwfUnxb9Vv45118Zwqw2P0hncf8S5t/Hnob9eeWf+S1A0SLEXAPDdWLNH+nAwCh8UOKb6N+y/XwLr6TAix6f0jnMf/S5h/Y/DfKvNzyjzwLSLLJLXgKKB5C7uEizd/6AEBw/JDiW6vfYT28i+9Ev6teV/96zVPMv6T5Bzb/jTIvt/wjL8LoWIx38RByDxdp/lYHAMLjhxTfSv2O6+FdfOvmbxvSN/vA9u+g8w9s/hseep38Iy89L+nkFjzv4iHkHi7S/FsLgPT4eeht1O+xHkjxdS7A0jf70PZvmTe0/AObv4TvUJEXkZd0ckued/EQcg8Xaf6NBSCH+Am4B4kUX6cCLH2zD3H/Dj3/kOavlIjvUJEXkZd0ckued/EQcg8Xaf61BSCX+Am4B4kUX+sCnMNmH+L+HXr+eeid868H+UdeAy/p5JY87+KhHDYQ4F/bQJp/pf85xQ8svhseeq30O6yHk17Jm32I+5f559/8SwcAueYfeQ28pJNb8pDi4VxAQuu18M/pACC3+IHFtw+/A3caPeQx/9Lmn3fznzkAyDn/yGvgJZ3ckocUD6cCEkMv2Pw3yrzc4ocUX6V68Ttw69FTHvMvbf55N//JAUDu+UdeAy8HMUjxsC4gsfTyHqR/8Q10DxIpvrX6Be0P6TzmX9r8827+E/2uel39Iy8hLwcxSPGwKiAx9fIepH/xDXQPEim+lfqF7Q/pPOZf2vzzbv5187cNYflHngtPoBikeLQmcGy9vAfpX3xD3IP00NuoX+D+kM5j/qXNP6T5Ox8ACMw/8jJu/mYgxaMxgbvQy3uQ/sU3xD1IsPhulHkC94d0HvMvbf4hzd/pAEBo/pGXcfM3AyketQnclV4L/xo3Zw/i5118J/pd9c75BxbfjTJP4P6QzmP+pc0/pPlbHwAIzj/yMm7+ZiDFozKBO9br3fxLBwC5xs+7+NbN3zZm/QOL74aHXif/BsBj/qXNP6T5W+kXnn/kZdz8zUh9D61xWPC8m//MAUDO8UOKr3MBLvsHFl8+C5355zQE5h/S/Fv1C86/dW2Xabu2KIojWuPntd2j7QFt9+n/foe227T9ibaXartIW9GhfzJ40sUIuIeG6vVu/pMDgNzjhxRfpwJc5R9SfJXis9CZf256BeYf0vwb9QvNvwu1vU3bN5W73ju1vVbbmRnpxXjSxYDFY6PMS6DXu/lPDgAg/wTEDym+1gW4zj8PvXP+Sd8f0nnMv+T5hzT/Wv0C8++AtpsD6DX2kLYj2h4vWG8YnnQxYPHYiO2fBc+7+U/9R/wTED+k+Frpb/HPu/iWCrDI/SGdx/xLnn9oM3TV6zxA3nHa3qi2mnaI5j9rx7SZ2wePF6Q3LE+6GLB4SLiHizR/5wMAgfFDim+rfgv/vIvvTAEWuz+k85h/afPPQ2+jfmH5t0/b7WWfAzX/Wd6xoiiuX11d/QHp+82ZJ12MgHtoqF6k+bcWoDb/BMQP3ZxOeiv88y6+kwIsen9I5zH/0uZfgGboqtfJP4BnvrT3tbK/EZr/nBXF0s36fw8k0BuHJ7l4HJJxDw3VizT/xgJk41/T/G0WKH7o5nTSW+Gf92af6HfV6+pfr3mK+Zc0/wI0Q1e9Tv558i7Rdm/Z19jNf4a3eWtAzXxHILLe6Lykk7fwoMUTEGyk+VsdAAiPH7o5XfVWzm+rt8I/5yF9sw9s/w46/wI0Q2n5Zy7731P2s8PmP2tWBwLC4oeNBGKgxRMQbN/ksioA0uPnobdRv8d6oJvdaUjf7EPbv2Xe0PIPbYbC8s984a+Le/4+vJvU1i8RQupdGENr/mZAiycg2Ghyof4ljV+AzemqtzzQze6kV/JmH+L+HXr+oc1QWP69seyfkOY/tbkrAjns36STW/KgxRMQbDS5UP+Sxi/A5nTVa63fcj2c9Ere7EPcv0PPPw+9c/4Jyj9zdh3jp34xeJsHAuPx+CJB8avkJZ3ckocuXmz/2gaaXKh/SeMXYDPl/h0M59EzHvMvbf5BzVBQ/oV6yA+6Hk68oihuXl1dPSggfpW8pJNb8tDFi+1f20CTC/UvafzQzRRgPdDN7qRXSLGUxGP+pc0/qBkKyb8L6/yT3PxnzPlXA4HjV8tLOrklD1282P418gIkF+pf0vihmynAeqCb3UmvgGIpjcf8S5t/UPMSkn9vq/Mvg+Zf/kzllwUjx6+Wl3RySx66eLH9a+QFSC7Uv6Tx89A751+A9UA3u5NeAcVSGo/5lzb/oOYlIP/MW/18XuwTolnH4rVeEehq/yad3JKHBju2f428AMmVe/ygzRRgPdDN7qrXefScx/xLm39o83IegfPvUIt/sZt1bN7CFYGk+1dY8TADDXZs/xp5aHL1IH7QZkLXw0Nvo36B+0M6j/mXNv/Q5uU0QuefHtcGatbv1PaElZWVHSeeeMJJ+n+fURSFedHPMQEHE9tXBNj8Fwca7Nj+NfLQ5OpB/KDNhK5HgM3pqtfJvwHwmH9p8w9tXk56Q+efeQlPgOZ/ZZ1/q6tj8wXDw2qrCTuzA19JKL90aPDN3ww02LH9a+RZ+NeYXD2IH7SZ0PUIsDld9Tr5NwAe8y9t/qHNy0lv6PzTPn0+wJm/jX8XKMcDgcDNf5azeSAweY4AFL/cm78ZaLBj+8d7kM3+oZvJecz6F2BzSt8f0nnMv7T5hzYvJ72h80/7dTcYvyc4+md1IBCx+c/yvH4+2KfmbwYa7Kj+WfCgZOhB/JDi61yAy/6hm1P6/pDOU8y/1PmHNi8nvaHzT/t2FInfysrycZ7+1R4IdNT8Z836QMB5PSQXj0My7qGheqFk6EH80OR30lv2D92c0veHdB7zL3n+oc3LSW/o/BMQv7kDgQTNf9aMD+/RdoZt/Fr1Si4eh2TcQ0P1QsnQg/ihye+kt+yfh945/6TvD+k85l/y/PNtNo36u8o/C/862b+adcHsrwYSNP9Zu0/b1dpW2+LXqldy8Th0SMQ9NFQvmgyQfwLihya/k94K/6DNKX1/SOcx/5LnH9psXPU6D+Hxm/NvbW3NHAi8e2nr8b6+OR3qSsKntH0ftB6Si8dsAVGegRZQLNFkgPwTED80+Z30VvgHbU7p+0M6j/mXNv889DbqT5B/IvevuSKgPH8+GKj5T+2O8Xj8BO/1kFw8pgVE+QdHwj1cNBkg/wTED01+J70V/kGbU/r+kM5j/qXNvwDNxlWvk3/S42fh37na/lRZHggEbv5Txjdmnh3gpldy8Tgk6B4QoBdNBsi/pvnbLFD80OR30lvhn3fxmOh31evqX695ivmXNP8CNBtXvU7+SY+fg97WKwKRmv/Uvrq+vvYYX71Oo+NkgIIjoFiiyYD6lzp+aPK76q2c31ZvhX/OI9dm3dP9O+j8C9BsUudfbvu38opA5OY/5ZnvBIx9NFuPBMkABUdAsXRJVqsC5Ohf0vh56G3U77EeSPFwLiCZN+sYPOZfwvxDm42A/Mt1/24fCHTU/Kf2SldHrUeiZICCI6BYuixeawHy8C9p/AIkv6ve8kA2k1MBEVAsJfKYfwnzD202AvIv6/27urp6/vRXAx00f2MPaft+W/+cxCRKBig4Aoqly+I1FiBP/5LGL8CRr6tea/2W6+GkN/NmHYPH/EuYfx565/wTkH+92L+Tnw++S3m+dMhBr7H32PrnJabjZECDE9u/tuG6eK0JnFP8Alz2yv07GM6jZzzmX9r8g5qNgPxLHT/n0cLz+vmgY/8w7PNt/EPFOA8PXujgkEceeeSRNwxe40jY36x/PugZv9fa+BdKjNXw5ElOLvLII4888uTyaoeQ/tZ4IADE76va5i7xV/kXWkwMnuTkIo888sgjTy6vcgjqb9OxcGsgQPye1OZfLDEheZKTizzyyCOPPLm8hSGsv5WHORC4OVD8XuTsn8DgSE4u8sgjjzzy5PLmhsD+tsA7ePDC8Wg0+s0A8fuz3Ju/KosSllzkkUceeeTJ5W0Pof2tknfw4EWrRVHcCMbvs7k3f6XCJoP0ZCWPPPLIIy8cb3MI7m+1vJWV5ad56J2N35dzb/5KhU0G6clKHnnkkUdeOJ70/lbLG41GJ3pqnsbsvtybv1Jhk0F6spJHHnnkkReIJ72/tfC8DgBm4nZvq3/SgyM5ucgjjzzyyJPLk97fWniXu+otxe7Lrf5JD47k5CKPPPLII08uT3p/a+AtabvRVW/Jbmv1T3pwJCcXeeSRRx55cnnS+1tD87/WR28pfu+2cUZ0cCQnF3nkkUceeXJ50vtbBW/zQUC+ekvxe5GNQ6KDIzm5yCOPPPLIk8uT3t9meDHeEvgkK6ciiAnGU4KTizzyyCOPPLk86f1N+2j9VkAbvTN/v1OVXgYUbHR8ZCQ2ucgjjzzyyBPNcx5d9LfV1dXzlWfjb9E7tdd4OesjJvJlFig4Gd4DIi8sD91MkH9ocQsQP7T4Ounl/iUvMC/p/g2tVzf+i4qiOKI8G7+F3o0J+/u9HHYR01EyQMHJPPnJw3noZoL8Q89sAsQPaf6N+rl/yeuAl3T/htK7trZ2gW7879b+eTd+S73G2r/9rxxv/ydMBig4mSc/eTgP3UyQf03zt9nMGTASP6T51+rn/iWvI17S/YvqnW38Hd02eVDbPlv/nMQkSgY0OLH9I082D9lMVvnT4h+02QPED2n+lfq5f8nrkJd6/zoP8+/MPf7Zxt9R8zf2Che9VmISJwManNj+kSebh2ym1vyx8A/a7Gj8PPQ26uf+Ja9jXur96zS0L+fqxv+u2cbfYfO/RVtjUy/r7TQ4njw0OLH9I082Dykejflj6R+02dH4gc1/o8zj/iWvY17q/Ws7Nn/HX278HTb/O7Q9ylVvV8EZ7D0g8pLzkOJRmz8O/kGbHY1fgGLkqtdaP/cveRYj9f5tG9u/4w9wsO3b/L+u7fwmJ+v0xg5OCB4anNj+kSebhxSPyvxx9A/d7M5j1r8AxYj7l7yUvNT7t27MPbkvYfP/Z237mxx10iswGZDgtBYQgXrJC8hT+OZE/UM3u9Mo+4cWI+5f8lLyVPr9Wx4LT+5L2PzNPf/Tmpx10is0GZDi0VhAhOolLyAvwOZE/UM3u5Pesn9oMeL+JS8lT8D+nY7KZ/Unav7f1naVcvzCX6NewcmABju2f+QJ5gXYnKh/6GZ30lv2z0PvnH/cv+Sl5AnYv7Uv6UnQ/I0P79H2SNv4WekVngxosGP7R55gXoDNifqHNH+rA4AW/6BixP1LXkqezpOj4P493tO/xrfzddz8jQ/m8cGPd41fq17pyaDwYEf1jzzZPHRzBvAPLR5Oeiv8g4oR9y95KXk6V+4Gm+sVjv61vpa3w+bv1Pir4teqV3oyCLoH1Ile8sLyeA8cK0bcv+Sl5Ol8+TsF7N+iWPqr/fvPX7Pwr7Xxq+6av3Pjr4tf63pITwYB94A61UteWJ4CN2cA/9Di4aS3wj+oGHH/kpeSp7aaMtRci6J40759Z++o8c+q8c/yIjZ/r8bfFL/W9ZCeDALu4Xaql7zgPGhzBvAPLR6ueivnt9Vb4Z/z4P4lLyDvGhWmuX5a//d/r7Z+NrdH2zOVZeOv4YVs/sf0Qcr1+n+dG79F/Fr/sehkEHAPt1O95AXnQZsT9a/MS3APHC1uToP7l7zAvMsU3vxDNuugPN34bx6PxxcnWw/pySDgHm6neskLzoM2O+qfgHvgaHFz0sv9S15g3pq2bygBzTogb/OMf3V19QeSr4f0ZFBgsDNPfvJwHrTZUf8E3ANHi5uTXu5f8iLw3qp60vzNGb9u/AelrUfSyVt40OL1IPnJw3joZof8E3APHC1uTnq5f8mLwDug8m7+s2f84tYj6eQWPGjxpAWbvM556GaH/BNwDxwtbk56uX/Ji8R7n8qz+d80ucefOn74SJQM0OJJCjZ5SXjoZof8E3APHC1uTnq5f8mLxDM/13tQ5dP8b9L/9oCg+FXykk5uyYMWT1KwyUvCQzc75F/T/G0W6B44Wtyc9HL/kheR9zolu/lv/45faPwWeEknt+ShixfbP/Jk89DNjvoHFaMA8UOLm6veyvlt9XL/ktcwzC8CPqNkNv+b1NZ3FSTHb4GXdHJLHrp4sf0jTzYP3eyof1AxQuPnobdRP/cveSl5Ojf2Lk3eDyCg+S88uU96/Mq8pJNb8tDFi+0febJ56GZH/YOKERq/AGc2rnrLg/uXvKC88Xj8gzpP7k3Y/Csf2ZtL/GZ5SSe35KGLF9s/8mTz0M2O+gcVIzR+Ac6UXPVa6+f+Jc+Xt7o6foLOl7tU981/+1J/l3pj8ZJObslDFy+2f+TJ5iGbvTJ/HP1Di5HzmPUvwGVS7l/yRPJ0zpyt//xZFb/5N76kJ9f4VfIEikEXL7Z/5AnmKaz5L+SPh39oMXIaZf/Qy6Tcv+QJ561re62q+IlgnTnkX+vb+XoQPyGT1w+keDQWEKF6yQvIG/o9cPQeKfcveZnwzHMCblRhmv9DyuK1vL2Kn2AxSPGoLSCC9ZIXkDf0e+Aeeuf84/4lLzPefm1vURUvELLIvzu0/a62MzPSi/OEi0GKR2UBEa6XvIA83gP3b/6lAwDuX/Jy4q1qu1Tb1dreq/Pt9qWtnw8+oO3b2r6i//ut2t6h7SXaLtRWdOifDJ50MQorHgsFRLpe8sLyeA/cv/nPHABw/5JHXh950sUIuIfbqV7ywvJ4D9y/+U8OALh/ySOvrzzpYgTcw+1UL3lheQpo/j25B+7d/Cf6XfXO+cf9Sx55gnnSxQi4h9upXvKC87ybf0/ugXs3/7r52wb3L3nkZcKTLkbAPdxO9ZIXnOfd/HtyDxxp/s4HANy/5JGXEU+6GAH3cDvVS15wnnfz78k9cKT5Ox0AcP+SR15mPOliFFA8At3D7VQvecF53s2/J/fAkeZvfQDA/Useefnykk7ewvMuHoHu4YpfPPIaed7NXzmeAVf5J+AeONL8rfRz/5JHXr68pJNb8LyLR4h7uNIXj7xWHtL8nQ8Ayv4JuAeONP9W/dy/5JGXLy/p5JY87+IR4h6u5MUjz4qHNH+nA4Aq/wTcA0eaf6N+7l/yyMubl3RyS5538QhxD1fy4pFnxUOav/UBQJ1/TfO3WaB74Ejzr9XP/Useefnzkk5uyfMuHsrxDM7TP/Jk85Dmb5U/Lf55N/9A98CR5l+pn/uXPPL6wUs6uSUPKR7OBUSAXvLC8pDm35o/Fv55N/8Q98A99Dbq5/4lj7z+8JJObslDiodTARGil7ywPKT5N+aPpX/ezT/EPXCw+W+Uedy/5JHXH14OYpDiYV1ABOklLywPaf61+ePgn3fzD3EPHGz+G2Ue9y955PWHl4MYpHhYFRBheskLy0Oaf2X+OPrn3fzr5m8bs/6BzX/DQ6+Vfu5f8sgTyBMoBikerQVEoF7yAvIU1vwX8sfDP6T5Ox8AlP0Dm38fnkPgNMgjb7A8oWKQ4tFYQITqJS8gb+j3wJHmr1QvnkNgPcgjb7A8wWKQ4lFbQATrJS8gb+j3wD30zvnH/UseeT3nCReDFI/KAiJcL3kBebwH7t/8SwcA3L/kkdc3nnQxCiseCwVEul7ywvJ4D9y/+c8cAHD/kkdeH3nSxQi4h9upXvLC8ngP3L/5Tw4AuH/JI6+vPOliBNzD7VQveWF5Cmj+PbkH7t38J/pd9c75x/1LHnmCedLFCLiH26le8oLzvJt/T+6Bezf/uvnbBvcveeRlwpMuRsA93E71khecd1R5Nn9jp59+2i7EvzIvwT1wpPk7HwDM+rdv39k7wP17fw/yjzzy5PKkixFwD7dTveQF592tPJu/sV27dp6K+CfgHjjS/J0OAMr+7d590iPA/XtXD/KPPPLk8qSLUUDzD3QPt1O95AXnfUl5Nv+JnY34J+AeONL8rQ8AqvwzB08eemf9+2IP8o888sTzkk7ewvNu/oHu4YpfPPIaebcpz+Y/+duFiH8C7oEjzd/qAKDOP808z1Pzpj9FsfTZHuQfeeSJ5iWd3ILn3fxnDgDEBJu8znkfUf7N39gViH8CvsOCNP/WA4AW/y730Tz1qSiKD/cg/8gjTywv6eSWPO/mvxTgd8ySF488K96Nyr/5G/sVxD8B32FBmn/jAYDFejzXVe+sX/oA4IYe5B955InlJZ3ckufd/JcC/I5Z8uKRZ8V7k/Jv/sbejPhXN7eNBfoOC9L8aw8ALNfjra56SwcAv9+D/COPPLG8pJNb8rybv2o5gwnkH3myeS9U/s3f2MdB/7ybf6DvsCDNv3L/OKzHJ131lvx7vo9gYflHHnlieUknt+Qhzd/5AECAXvLC8p6u/Ju/sW9rGwH+eTf/EN9h8dDbeADgsB4mZve66i359xRXsQLzjzzyxPKSTm7JQ5q/0wGAEL3kheWdofyb/9TOBfzzbv4hvsMCNv+NMs9hPax+AdDi3+muegXmH3nkieXlIAZp/tYHAIL0kheWV2i7T2Fnwi8B/PNu/iG+wwI2/40yz2E9Xuajd+bv5spL4apXYP6RR55YXg5ikOZvdQAgTC95gXl63AKeCX8M8M+7+SuHA9g6/8Dmv+Ghdzo+4al3ap/w0Ssx/8gjLxueQDFI828toAL1kheYVxTF74Bnwse0nerpH9L8nQ8Ayv6Bzd/3OQTfM4kZcvD+Ch+9EvOPPPKy4AkVgzT/xgIqVC95gXl6PDPAmfAvefqHNH+nA4Aq/5Dmr5T3cwh+GdA7tdYvAOaSf+SRJ54nWAzS/GsLqGC95AXmnXzy7hN1rjwANsNbPf1Dmr/1AUBd/AC9s79CcF2PvwH0GjNvcDzOR6/E/COPPNE84WKQ5l9ZQIXrJS8CT+fLRxXYDMdjjXT3Dz0T9tI745+33tIBgK3eJ4N6jX0A0Os8yCNvsDzpYhTW/BcKqHS95MXh6T9drcBmWBTF9R7+oc3QS++Mf956Zw4AXPQeAfUa+3VAr9Mgj7xB86SLAZv/RpknXS950XiPUWAz1HZsbW31XEf/0Gboq7dyfke9rs8hOFPbQ6BeY3sBvdaDPPIGz5MuBmz+G2WedL3kReVZP5pW1TevP3F0DW2GiN65+X30Oq7HOwLorXz0ck/yjzzyZPGkiwnw7W05wSYvNe9KhTX/qV3q4B7SDCsPABzjh+q1HZeomZ/+AXoX3r7Yo/wjjzxZPOliwOYf4n3qneolLyrvJG0PKKz5G/ucNrs3aWHNcKEBe8QPuS3m/gAAGNlJREFUPdixGea5/7da8prMrM2/AfU2DvLII28eIFoM0vyVCvI+9U71khedd1hhzX9qrW+qM34I+A4LerBjM57vwGuy9wbQWzvII4+8CkiyyS14Cmj+M99ilhFs8iTwnqTw5m/sW9r2tfkn4Dss6MFO2zhL2794xK/KnhhAb+UgjzzyAo2OxXg3/9IBgJhgk5ecZ35njjT/qZlbATua/BPwHRb0YKdprGn7DBC/WfurqvgJyRfyyOstL+nkFjzv5j9zACAm2OSJ4D1V4c1/an/Q5J+A77Agzb/tAOB/Bojf1C6vip+QfCGPvF7ykk5uyfNu/pMDADHBJk8Ub/MngYGa1y/U+SfgOyxI8286AHh2wPh9vC5+gvKFPPJ6x0s6uSXPu/lPDgBi+0dehjw9fjRQ8zL2HW3PqvLPk7edzwH0Is2/7gDgWUZzwPj9iPR8IY+8PvKSTm7J827+qvkMJpR/5GXKK4rihgDNa5p/R81bByv8827+gb7DgjT/qv1zSNv9AZv/X+SSL+SR1zde0skteUjzdz4AEKCXvI546+vr5+hcuT9A85/avePx+Mkl/xAe/B2WMs+jWc+OH9R2b8Dmf5/+t4/OJV/II69vvKSTW/KQ5u90ACBEL3kd8oqieLkK0/yndr/+7z8zMy3EQ/UGaNbT8RMqbPM39uu55Qt55PWJl4MYpPlbHwAI0kteh7zxeGVd//kLKkzzn/7NPBL3Km1LKA/VG6BZm2EeofxQ4Ob/D6eeumdXbvlCHnl94uUgBmn+VgcAwvSS1z3P3Neee4tdm1nm39sD8CC9AZr12x302tpDKysrV2ScL+SR10+eQDFI828toAL1kpeGd60K2/xDHUxAejvwz9mKori6B/lCHnn94gkVgxaj2P6R1w9eoe1mJav5Ox0AVOmV1/yX/vq8885Z70G+kEdef3iCxaDFKLZ/5PWHd7K2ryg5zd/6AKBObwf+ufDu3LVr5/f1KF/IIy9/nnAxaDGK7R95/eJdobYe7COh+VsdALToldL8HxiPV54iYH3JI488EZPbDbQYRfWPvF7y/oPa+iZ/6ubfegBgoVdC8z+2vLz8C4LWlzzyyJv8A9FiAhSjqP6R11vei1X65t94AGCpN3Xz3xiNRi8WuL7kkUeedDEBilFU/8jrL68oit9N3PxrDwAc9CZt/jqGb5S6vuSRN3iedDEBipGcYJOXFe/gwYtWdQP7o4TN39hN2t6g7blq6/sJ5+l/e8bxxz/85Ec96pE7jZ144gknr6+vn6X/+3mTzzxv8m9u6sC/pub/dhNDqetLHnmD50kXgxYjUcEmLzve5CDgVSpN88+Wp2P2+v37z1+Tvr7kkTdonnQxaDESFWzycuaZx+FufzHQ1nJo1qG/8Dcaja7JcH3JI294POliFFjcRAWbvNx5/1HbA6o/zTo078Hl5dEvZry+5JE3SF7SyVt4UHGTGGzysuZdru1OlX+zDs27g7/zJ4+8/HhJJ7fgQcVNWrDJ6wVvt7b3qXybdVCeebwvn/BHHnn58ZJObsmDipukYJPXK95Ibb3y90GVUbMOzDtWFMVv89n+5JGXJy/p5JY8qLhJCjZ5veRdpu0flPxmHZr3//hKX/LIy5uXdHJLHlrcYvtH3sB54/F4zbziVufcfUKbdUjeUW2vOPXUPbukrgd55JFnx0s6uSUPLW6x/SOPvE3ejh079uoDgRsENevQvPfrf7s3l/UgjzzymnlJJ7fkocUttn/kkTfH0396hrZPqP40/49p++Fc14M88sir5uUgBi1usf0jj7w63iXarlf5Nv8Pqa2Dmb6sB3nkkTd/siJeDFrcYvtHHnltvCdqe6/aun8uvfkbH9+jtg5epMSPPPLI64InUAxa3GL7Rx55trwTtD1HbZ1Zbz9WWEjzv11tvQJ5t+D4kUceebF4QsWgxS22f+SR54Pbq+3Xdf5+SNsDCZq/OdP/gLb/ru3sDvSSRx55UnmCxaBnNrH9I488iHfKKSefsLKy8iOTtw6aLw/ep8I3f8P8uLbf0vYUbcel0kseeeQJ4gkXg14mje0feeSF5hXaHqm2GrV5C+HvabtB24e1fUbbF7TdrbbO4o3drffDF4pi6VZ9EPFhbTdqe9Pk3z5lwioE6yWPPPLY/CsHeo80qn/kkUceeeSRlyVPupgAX5CK6h955JFHHnnkZcmTLibAt6Oj+kceeeSRRx55WfKkiwnw7Wg5wSaPPPLII488KTzpYtCfRokKNnnkkUceeeRJ4UkXg/4uWlSwySOPPPLII08KT7oYBTR/c/AgKtjkkUceeeSRJ4yXdPIWnnfzLx0AiAk2eeSRRx555EngJZ3cgufd/GcOAMQEmzzyyCOPPPIk8JJObsnzbv6TAwAxwSaPPPLII488Kbykk1vyvJv/5AAgtn/kkUceeeSRlx0v6eSWPO/mr2YeBBTRP/LII4888sjLjpd0ckse0vydDwAE6CWPPPLII4+86Lykk1vykObvdAAgRC955JFHHnnkReflIAZp/tYHAIL0kkceeeSRR150Xg5ikOZvdQAgTC955JFHHnnkdc8TKAZp/q0HAAL1kkceeeSRR97gm78ZSPNvPAAQqpc88sgjjzzyBt/8zUCaf+0BgGC95JFHHnnkkTf45m8G0vwrDwCE6yWPPPLII4+8+DzpYhTW/BcOAKTrJY888sgjj7xOeNLFgM1/o8yTrpc88sgjjzzyOuFJFwM2/40yT7pe8sgjjzzyyOuEJ10M2Pw3YvtHHnnkkUceeVnypIsBm/+GqGCTRx555JFHnhSedDFI81dbBwBygk0eeeSRRx55UnjSxSig+ZuDB1HBJo888sgjjzxhvKSTt/C8m3/pAEBMsMkjjzzyyCNPAi/p5BY87+Y/cwAgJtjkkUceeeSRJ4GXdHJLnnfznxwAiAk2eeSRRx555EnhJZ3ckufd/CcHALH9I4888sgjj7zseEknt+R5N3818yCgiP6RRx555JFHXna8pJNb8pDm73wAIECvNB70HQz0OQ7kkUceebnypNf7pJNb8tDFi+1f33liNhN55JFHXk486fU+6eSWPHTxYvvXd56YzUQeeeSRlxNPer1POrklD1282P71nSdmM5FHHnnkZcZzHknrvcDmhS5ebP/6zpO0mcgjjzzycuI5DTb/xYEuXmz/+s6TtJnII4888nLiWQ82/+qBLl5s//rOk7SZyCOPPPJy4lkNNv/6gS5ebP/6zpO0mcgjjzzycuK1Djb/5oEuXlT/BsCTtJnII4888nLiNY7k9V5Ys1ngBVi8qP4NgCdpM5FHHnnk5cSrHSLqvbBms8ALsHhR/RsAT9JmIo888sjLiVc5xNR7Yc1mgRdg8eQEO0+epM1EHnnkkZcTb2GIqvfCms0CD108UcHOkKdkbSbyyCOPvJx4c0NcvZfUbKp46OKJCnaGPGGbiTzyyCMvJ972EFnvJTWbKp4CF09UsDPkCdtM5JFHHnk58TaH9HqfdPIWHrR4EoOdE0/YZiKPPPLIy4knvt7Hmnxd22XartV2WNvntd2j7QEld/EemPj4dxOfr9H25FNP3bNL6uLF5qHrkZveCh6UfxnqLQ90v8X2LzYPrS+x/YvKU3h9juof65+85n+htrdp+6bq9kgrJu8bRVH8werq6kFJi9cFD41fbnoreFD+Zai3PND9Ftu/2Dy0vsT2LyovQD3NSu/Q6l/Iyfdru1mlb9axee/TdoF95KzjJ5KnwPjlpreCB+VLhnrLA91vsf2LzUPrS2z/ovIC1NOs9A6t/oWYfIe2N2h7SMlr1rF4D2p73UQ7Gj/n0TEPil+GessDzZfY/sXmofsttn+xeWh9ie1fVF6AepqV3qHVP3Tyx2i7Xclu1jF5t2nbC8TPeSTgQfHLUG95oPkS27/YPHS/xfYvKk/h9SWqf7F5aD3NTe/Q6h8yubnX/zWVT7OOxTNfGrzEI37OIxEPil+GessDzZfY/sXmofsjtn9ReQHqS1Z6yzy0nuamd2j1z3fyJ2i7V+XXrGPxTCwudoif80jIg+KXod7yQPMltn+xeej+iO1fVF6A+pKV3jLPQ+9cvuSmd2j1z2fyfWrrrDfXZh2Ld7e2sy3i5zwS89D4xfYvNg/Nl9j+xeah+yO2f1F5AepLVnoreFA9zVBveQyr/rV82Py2/9ay+DYT2Kxj8W5bWVnZkfFmrxpo/GL7F5uH5kts/6LyFL4/ovoXm4fWl9z0VvCgepqh3vIYTv2z+PAbyuLbTHCzjsIriuL1GW/2qoHGL7Z/sXlovsT2LyovwP7ISm+Zh9aD3PRW8KB6mqHe8hhG/bP4sPmd/5B+6ufLe3BtbfXCTDd71UDjF9u/2Dw0X2L7F5UXYH9kpbfM89A7ly+56a3gQfU0Q73l0f/6Z/nhITzkJwivKIobM93sVQONX2z/YvPQfIntX1RegP2Rld4KHlQPMtRbHmg9je1fbF6/65/lhy+sC0SV5dSsY/G07XdbNqf16JKHxi+2f1F5Cs+XqP7F5qH7Ize9FTyoHmSotzzQehrbv9i8ftc/yw+/rUFg9s06Eu/NVis2vxbSkt8MNH6x/YvKC5AvWekt89D9kZveCh5UDzLUWx5oPY3tX2xev+ufxYfXVL9e7NMV7+vaVlvWbHYd0idD9UDjF9u/qLwA+ZKV3jLPQ+9cvuSmt4IH1YMM9ZYHWk9j+xeb1+/6Z/HhQw3i+tKsY/Faor+9BjKSoXqg8YvtH++Bx+VB+yNDveWB1oPY/sXmofU0tn+xef2ufxYfvlb5J/+svVNtPUGw8QU6iYNjfDOP9X1XAL3GfiOwf6H12gz04Cmqf7F56MFibnoreN7Nf+YAICe95YE0f+cDAAF6ywOpf636Beotj37XP4sPH1F4M7yyEzFheS+s0OGaDNdlpLeSF+DKSVZ6yzz0SlFueit43s1/cgCQm97yQJq/0wGAEL3lgdS/Rv1C9c7xel//LD78eYU1/3d2JiY8790KS/6/zUzvAi/AbZOs9JZ5Hnrn8iU3vRU87+Y/0R/bv9g8pPlbHwAI0lseSP2r1S9Y7xxvKPWvaZhn3Psmv7EndC0mIO+JCkv+r2Wmd4EHJv9GbnoreN7Nv3QAkIve8vBu/sqhAQL+xeYhzd9KvzC95YHUv0r9wvUOrv61jaPKP/mNHdelmMC8nQpL/qOZ6V3ggcnPe+D56S0PpPk7HwAI0FseSPNv1S9Qb3n0+x54C6/v9c9m3K/8k9/Y8V2JCc0bjUYngMl/b056q3hI8ivFe+AZ6i0PpPk7HQAI0VseSPNv1C9U7xwPrH8bZZ50vUOrfzbjDuWf/Mae1pWY0LyVleVngMn/lZz0VvEc9S4Uy9z0VvC8mz/vgdsfAAjSWx5I86/VL1jvHG8o98CHWv9sPnub8k9+Y9d3JSY0ryiKI2Dy35qT3hqed/LzHrh9AwT8i81Dmr+VfmF6ywNp/pX6heud4w3hHviQ65/N5/8kwGWgA12ICckzb/TTOo+Byf/Hueht4HknP++Bux8ACNBbHkjzb9UvUG958B54j++BD73+tX54NCr+W4DLQNd3ISYkb/bs30Pv1F6Si94Gnnfy8x642wGAEL3lgTT/Rv1C9c7xeA+83/fAh17/Wj+8ujq+JMBlIPNvD+SSDLNn/756jY3H44tz0NvC805+3gO3PwAQpLc8kOZfq1+w3jke74H7178c7oEPvf61fnj//vPXtJA70Gaoz6ivzyUZpmf/iF797+80sctBbwvPO/mVQwME/IvNQ5q/lX5hessDaf6V+oXrnePxHrh/88/hHjjrn8WHdUN8fVsAmmwSkGOrq6sXd7x4zjzt40XGV1SvjtnrepD8StmvL++BexwACNRbHrwHznvgXs0/h3vgrH8WH9aCHq3//JBNMMo2G5TJVQDRyWDO/n10lvQeW19fP6cHyW8GkvxOG0CI3vJAmn+jfqF653i8B8574C6W2z1w1j/7Dx9uCkSVVQTH3FffH12MJ291dXyh/pP32f/Mgc6RTDd71UCS33oDCNJbHkjzr9UvWO8cj/fA/Zs/74HLvwfO+mf/4QuUQ3NsCM6RqGIAnvI4yKnSu7q6ejDTzV41kOS32gDC9JYH0vwr9QvXO8fjPXCsHmSotzzQeh/bv9i8ftc/x8mtLo9bBOdAFRwWA/C0j+crz7P/0m2OIxlv9qqBJD9aPMgjjzzycuY1juT13nHy1qsAlsGxugrQcXC8zv7LWic//YvhXyqepM1EHnnkkZcTr3aIqPcek9deBXAMTuNVgI6D43X2X9Y6OfuP4V9KnqTNRB555JGXE69yiKn3HpNXXgXwCE7tVYAEwQnxBUdj1rc2Eut1GZI2E3nkkUdeTryFIaree04+dxUACM5Cw0wQHOez/xq9hyP5l5SnZG0m8sgjj7yceHNDXL33nHz7KgAYnLmrAImC43T236DX+exfXDJU8IRtJvLII4+8nHjbQ2S9B84MjwQK9oFgYkq6LHhOZ/8Nep3P/kUmQwVP2GYijzzyyMuJtzmk13vnyc1Dc5ZmXpcLBPtIwuBYn/23JIPT2b/0ZJjlCdtM5JFHHnk58cTXe+/JzaN9QwQ70VvzrM/+W5LB6exfejKUecI2E3nkkUdeNjzp9R6aPOCLc65PEByrs3+LZBD3UKOQPEmbiTzyyCMvJ570eg9PriyfDlhls0Hu+PG5Vmf/FslgffafY/OfrK+YzUQeeeSRlxNPer0PMbnTOwJUTbAnVwEgMQ7BaT37t0wGq7P/XJv/hCdmM5FHHnnk5cSTXu9DTe50FaAh2F38lK717N8yGazO/jNv/maI2UzkkUceeTnxpNf7UJNbXwVoCbbTmwI9g9N49u+QDK0HKz1o/maI2UzkkUceeTnxpNf7kJO3XgWwDHbMy+qNZ/8OydB69t+T5m+GmM1EHnnkkZcTT3q9Dzl541UAh2C3XgUAglN79u+YDJJeZBSbJ2YzkUceeeRlxnMeSes9OHnlVQCPYNc2WMC/2rN/R/8az/571vzJI4888sgbAi/A5AtXATyPtCqvAoD+VZ79Czk4IY888sgjj7xsm/90bF8FAC+zzDVa0L/Ks38P/2rP/nuVDOSRRx555A2DF3jyzasAAe6xbF8FCODfwtm/p3+VZ/+9SgbyyCOPPPKGwYsx+ew7AsAvWBwI4N/C2b9n8688++9VMpBHHnnkkTccXozJp+8ICPDtyiMB/Js7+weuTCyc/SdfPPLII4888sjz5cWafHoVQPk3/83mPHlHgK9/c2f/QPNfOPsXsXjkkUceeeSR58uLNfnq6vhC5fGOAFVq1jNvCvTxb/vsX9AXEhcGeeSRRx555HXOizy515sCy416PB5f7OHf9tk/2Pznzv5FLR555JFHHnnk+fIiT+78psCaZu30joDJONzA8zr7F7d45JFHHnnkkefL62By66sALc3a5U2Bm2f/AZr/9tm/yMUjjzzyyCOPPJAXc3KrqwAWzdrlKsDhQM96PuCht3WQRx555JFHngReF5M3XgVwaNatVwH0vz1/9ieIQPM/DOitHeSRRx555JEngdfV5I9XYV7E81fairpJTjrpEUVRLP1lgOZvfH289MUjjzzyyCOPPF9el5MvXAXwvEz/Om3LZfjOncct6+7/xkBPIDySw+KRRx555JFHni+vy8nnrgKA9+hv0/YCbZdN7IX6398WqPmb2wePz2HxyCOPPPLII8+X1/Xkm1cBAn1BD72SUHvvP5fFI4888sgjjzxfXqeT68Z8QaAv6MVq/tOHDmWxeOSRRx555JHny+t88vKbApWg5q99O5LT4pFHHnnkkUeeL6/zyWffFKgENf8ALx6q1EseeeSRRx55WfC6mFyfab9XCWv+2qfrsl888sgjjzzyyPPhdTW5brhn6D/fp4Q0f23fPu64HWdlvXjkkUceeeSR58NLMPk1Skbz3xiNRtdkvXjkkUceeeSR58NLNLn5AsIHVeLmXxTFx04//bRd2S4eeeSRRx555PnwEos5Rds/qUTNX9sdu3btPD3bxSOPPPLII488X54AMRdqu0d13/zvnnzrP9/FI4888sgjjzxfnhAx52j7Z9Vd879zbW11f/aLRx555JFHHnm+PEFiztT2KRX9nv/SLTt27NgrQC955JFHHnnkpeMJEzPW9tu6UT8Uofk/OBoVrzzrrEcfJ0gveeSRRx555KXhSRSzvr52XlEU7w71xEDNunlyyb9fi0ceeeSRRx55vjzJYlZXx/v1n16r7U7l3vzv1I3/9TONP32wySOPPPLII08YL+nkFrxlbU/S9iJtf6bts9q+rO3bE/vy5L+Zv/0X89m9e89clxps8sgjjzzyyJPASzo5eeSRRx555JHXPS/p5OSRRx555JFHXhpe0snJI4888sgjj7w0vKSTk0ceeeSRRx55aXhJJyePPPLII4888tLwkk5OHnnkkUceeeSl4fVKDHnkkUceeeSRZ8frlRjyyCOPPPLII8+O9/8BACdayCP2DroAAAAASUVORK5CYII=;" parent="1" vertex="1">
          <mxGeometry x="36.25" y="545" width="30" height="30" as="geometry" />
        </mxCell>
        <mxCell id="COqr7rsEs2Xy4jQhT2ek-66" value="" style="rounded=1;whiteSpace=wrap;html=1;fillColor=#f5f5f5;fontColor=#333333;strokeColor=#666666;" parent="1" vertex="1">
          <mxGeometry x="18" y="840" width="492" height="160" as="geometry" />
        </mxCell>
        <mxCell id="COqr7rsEs2Xy4jQhT2ek-67" value="" style="sketch=0;points=[[0,0,0],[0.25,0,0],[0.5,0,0],[0.75,0,0],[1,0,0],[0,1,0],[0.25,1,0],[0.5,1,0],[0.75,1,0],[1,1,0],[0,0.25,0],[0,0.5,0],[0,0.75,0],[1,0.25,0],[1,0.5,0],[1,0.75,0]];outlineConnect=0;gradientDirection=north;dashed=0;verticalLabelPosition=bottom;verticalAlign=top;align=center;html=1;fontSize=12;fontStyle=0;aspect=fixed;shape=mxgraph.aws4.resourceIcon;resIcon=mxgraph.aws4.machine_learning;fillColor=none;" parent="1" vertex="1">
          <mxGeometry x="35.25" y="850" width="30" height="30" as="geometry" />
        </mxCell>
        <mxCell id="COqr7rsEs2Xy4jQhT2ek-68" value="&lt;b&gt;Classification&lt;/b&gt;" style="text;html=1;strokeColor=none;fillColor=none;align=center;verticalAlign=middle;whiteSpace=wrap;rounded=0;" parent="1" vertex="1">
          <mxGeometry x="74.25" y="850" width="67" height="30" as="geometry" />
        </mxCell>
        <mxCell id="COqr7rsEs2Xy4jQhT2ek-69" value="Random Forest" style="rounded=1;whiteSpace=wrap;html=1;" parent="1" vertex="1">
          <mxGeometry x="65" y="950" width="93.25" height="30" as="geometry" />
        </mxCell>
        <mxCell id="COqr7rsEs2Xy4jQhT2ek-70" value="XGBoost" style="rounded=1;whiteSpace=wrap;html=1;" parent="1" vertex="1">
          <mxGeometry x="194.75" y="950" width="146.5" height="30" as="geometry" />
        </mxCell>
        <mxCell id="COqr7rsEs2Xy4jQhT2ek-71" value="U-Net" style="rounded=1;whiteSpace=wrap;html=1;" parent="1" vertex="1">
          <mxGeometry x="380.75" y="950" width="82.25" height="30" as="geometry" />
        </mxCell>
        <mxCell id="COqr7rsEs2Xy4jQhT2ek-72" value="or" style="text;html=1;align=center;verticalAlign=middle;resizable=0;points=[];autosize=1;strokeColor=none;fillColor=none;" parent="1" vertex="1">
          <mxGeometry x="158.5" y="950" width="30" height="30" as="geometry" />
        </mxCell>
        <mxCell id="COqr7rsEs2Xy4jQhT2ek-73" value="or" style="text;html=1;align=center;verticalAlign=middle;resizable=0;points=[];autosize=1;strokeColor=none;fillColor=none;" parent="1" vertex="1">
          <mxGeometry x="344" y="950" width="30" height="30" as="geometry" />
        </mxCell>
        <mxCell id="COqr7rsEs2Xy4jQhT2ek-75" value="Split into patches and mosaic are optional, except for Unet" style="rounded=1;whiteSpace=wrap;html=1;" parent="1" vertex="1">
          <mxGeometry x="65" y="895" width="400" height="30" as="geometry" />
        </mxCell>
        <mxCell id="2bOrS27qIbPwQ1yJKfbT-2" value="" style="sketch=0;pointerEvents=1;shadow=0;dashed=0;html=1;strokeColor=none;fillColor=#434445;aspect=fixed;labelPosition=center;verticalLabelPosition=bottom;verticalAlign=top;align=center;outlineConnect=0;shape=mxgraph.vvd.service_provider_cloud_environment;" parent="1" vertex="1">
          <mxGeometry x="35.25" y="164.6" width="30" height="26.4" as="geometry" />
        </mxCell>
        <mxCell id="2bOrS27qIbPwQ1yJKfbT-6" value="&lt;b&gt;Download&lt;/b&gt; of Sentinel-2 Level-1C products&amp;nbsp;" style="rounded=1;whiteSpace=wrap;html=1;fillColor=#f5f5f5;fontColor=#333333;strokeColor=#666666;" parent="1" vertex="1">
          <mxGeometry x="20" y="449" width="490" height="40" as="geometry" />
        </mxCell>
        <mxCell id="2bOrS27qIbPwQ1yJKfbT-7" value="" style="html=1;verticalLabelPosition=bottom;align=center;labelBackgroundColor=#ffffff;verticalAlign=top;strokeWidth=2;shadow=0;dashed=0;shape=mxgraph.ios7.icons.down;fillColor=none;" parent="1" vertex="1">
          <mxGeometry x="40.75" y="456.25" width="21" height="25.5" as="geometry" />
        </mxCell>
      </root>
    </mxGraphModel>
  </diagram>
</mxfile>
